<svg width="821.27mm" height="279.04mm" version="1.1" viewBox="0 0 821.27 279.04" xmlns="http://www.w3.org/2000/svg">
 <g fill="#fff">
  <g stroke-width=".5864">
   <path d="m52.25 162.65c-28.857 0-52.25 21.456-52.25 47.922s23.393 47.922 52.25 47.922c14.624 0 27.837-5.5171 37.321-14.397v-81.447h-37.321z"/>
   <path d="m164.21 66.81h-52.25v130.07c0 45.371 40.103 82.153 89.571 82.153h44.786v-136.92c-6.1e-4 -41.59-36.761-75.306-82.107-75.306zm14.929 75.306h-1e-3c-8.2306 0-14.927-6.1421-14.927-13.692 3e-3 -7.5511 6.6998-13.692 14.929-13.692 8.2318 0 14.929 6.1421 14.929 13.692s-6.6974 13.692-14.929 13.692z"/>
   <path d="m89.571 148.96v-82.153h-89.571z"/>
  </g>
  <path d="m263.79 150.4c0-8.4787-1.2299-17.455-3.6471-26.617-10.437-39.559-39.499-64.472-83.617-71.68-9.0022-1.4707-24.97-2.5939-33.088-2.3274l-6.3622 0.20883 1.426-5.3254c6.9782-26.061 21.391-37.955 40.114-33.104 12.651 3.278 27.447 15.823 27.447 23.273 0 2.1842 0.86635 1.6395 2.4982-1.5707 2.4579-4.8352 7.9832-12.592 12.14-17.043 7.0284-7.5259 13.784-12.106 21.742-14.74 5.6015-1.8539 16.306-1.9841 21.347-0.25973 17.6 6.0204 28.55 21.956 27.484 39.998-0.69189 11.71-6.1099 22.245-16.383 31.855-3.1128 2.9119-3.8641 3.9215-3.2209 4.3288 0.46135 0.29214 1.2828 0.5353 1.8253 0.54036 2.8834 0.027 13.61 3.434 18.898 6.0026 16.682 8.1033 20.655 20.739 12.012 38.204-7.6365 15.431-26.756 32.829-38.361 34.908l-2.255 0.40385z" stroke-width=".60133"/>
  <g transform="matrix(11.926 0 0 11.926 -4778 -3155.2)" stroke-width="1.0044" style="shape-inside:url(#rect277);white-space:pre" aria-label="SYSAGRO">
   <path d="m431.62 274.73q5e-3 0.21704 0.12402 0.39274 0.12403 0.17053 0.3204 0.32556 0.20153 0.15503 0.45475 0.30489 0.25321 0.14469 0.51676 0.31006 0.26872 0.16019 0.52193 0.35139 0.25321 0.19121 0.45475 0.43409 0.20154 0.24287 0.32556 0.54776t0.13436 0.69247v0.0413q0 0.42374-0.10335 0.73897-0.10336 0.31522-0.27389 0.5426-0.17053 0.22737-0.3979 0.37724-0.22738 0.14469-0.48059 0.23254-0.24805 0.0879-0.50643 0.12402-0.25322 0.0362-0.48059 0.0413h-0.0517q-0.43925 0-0.76997-0.0879-0.33073-0.0879-0.56844-0.23254-0.23771-0.14986-0.39791-0.34106-0.15503-0.19121-0.24805-0.39274-0.093-0.20671-0.13435-0.40825-0.0413-0.20153-0.0413-0.37723 0-0.18087 0.062-0.31523t0.16019-0.21704q0.10336-0.0879 0.23255-0.12919 0.13435-0.0413 0.27905-0.0413 0.13436 0 0.27388 0.0413 0.1447 0.0413 0.25838 0.12919 0.11886 0.0827 0.19121 0.21704 0.0775 0.12919 0.0827 0.30489 0.0103 0.38757 0.1757 0.53227 0.16536 0.13952 0.47542 0.13952 0.15503-5e-3 0.28422-0.0362 0.13436-0.0362 0.22737-0.11886 0.093-0.0878 0.1447-0.22737 0.0568-0.14469 0.0568-0.36173 0-0.26872-0.12402-0.48576-0.11886-0.21704-0.31523-0.40308-0.19637-0.18603-0.44958-0.3514-0.25321-0.17053-0.51676-0.33589-0.26355-0.17053-0.51677-0.3514-0.24804-0.18603-0.44958-0.40307t-0.32556-0.48059q-0.11886-0.26355-0.12402-0.59945v-0.0827q5e-3 -0.55294 0.14469-0.91984 0.14469-0.3669 0.41858-0.58394 0.27905-0.21704 0.68212-0.30489 0.40308-0.093 0.92501-0.093h0.13436q0.47542 0 0.80615 0.10336 0.33073 0.10335 0.54777 0.26354 0.2222 0.1602 0.34623 0.36174 0.12919 0.20154 0.1912 0.39791 0.062 0.19637 0.0775 0.3669t0.0155 0.27388q0 0.15503-0.062 0.28422-0.0568 0.12402-0.1602 0.21187-0.0982 0.0879-0.23771 0.13953-0.13436 0.0465-0.29456 0.0465-0.12402 0-0.24804-0.0465-0.12403-0.0517-0.22221-0.12919-0.0982-0.0775-0.1602-0.1757-0.062-0.10335-0.062-0.20671 0-0.42374-0.15503-0.58911-0.14986-0.16536-0.44441-0.16536-0.13953 0-0.27389 0.0155-0.12919 0.0155-0.23254 0.0879-0.0982 0.0672-0.1602 0.21188-0.0568 0.14469-0.0568 0.40824z"/>
   <path d="m438.42 278.97q0 0.21704-0.0207 0.42891-0.0207 0.20671-0.0982 0.37207t-0.23254 0.26872q-0.15503 0.0982-0.42375 0.0982-0.27388 0-0.42891-0.0982-0.15503-0.10336-0.23771-0.26872-0.0775-0.16536-0.0982-0.37207-0.0207-0.21187-0.0207-0.42891v-1.7983l-1.54-2.7492q-0.12402-0.21704-0.23771-0.42375-0.11369-0.21187-0.11369-0.42374 0-0.13953 0.0775-0.27906 0.0827-0.14469 0.29456-0.26871 0.23254-0.12403 0.43408-0.12403 0.15503 0 0.27905 0.0724 0.12919 0.0672 0.23254 0.18087 0.10336 0.11369 0.18604 0.25838 0.0827 0.13952 0.14986 0.28422l0.94051 1.974h0.16536l0.94051-1.974q0.0672-0.1447 0.14986-0.28422 0.0827-0.14469 0.18604-0.25838 0.10335-0.11369 0.22737-0.18087 0.12919-0.0724 0.28422-0.0724 0.10852 0 0.21187 0.031 0.10336 0.031 0.22221 0.093 0.20154 0.12402 0.28422 0.26871 0.0879 0.13953 0.0879 0.27906 0 0.093-0.0827 0.30489-0.0827 0.2067-0.26872 0.5426l-1.5503 2.7492z"/>
   <path d="m442.5 274.73q5e-3 0.21704 0.12403 0.39274 0.12402 0.17053 0.32039 0.32556 0.20154 0.15503 0.45475 0.30489 0.25321 0.14469 0.51676 0.31006 0.26872 0.16019 0.52193 0.35139 0.25322 0.19121 0.45475 0.43409 0.20154 0.24287 0.32556 0.54776 0.12403 0.30489 0.13436 0.69247v0.0413q0 0.42374-0.10335 0.73897-0.10335 0.31522-0.27388 0.5426-0.17054 0.22737-0.39791 0.37724-0.22738 0.14469-0.48059 0.23254-0.24805 0.0879-0.50643 0.12402-0.25321 0.0362-0.48059 0.0413h-0.0517q-0.43925 0-0.76998-0.0879t-0.56844-0.23254q-0.23771-0.14986-0.39791-0.34106-0.15502-0.19121-0.24804-0.39274-0.093-0.20671-0.13436-0.40825-0.0413-0.20153-0.0413-0.37723 0-0.18087 0.062-0.31523t0.1602-0.21704q0.10335-0.0879 0.23254-0.12919 0.13436-0.0413 0.27905-0.0413 0.13436 0 0.27389 0.0413 0.14469 0.0413 0.25838 0.12919 0.11885 0.0827 0.1912 0.21704 0.0775 0.12919 0.0827 0.30489 0.0103 0.38757 0.1757 0.53227 0.16536 0.13952 0.47542 0.13952 0.15503-5e-3 0.28422-0.0362 0.13436-0.0362 0.22738-0.11886 0.093-0.0878 0.14469-0.22737 0.0568-0.14469 0.0568-0.36173 0-0.26872-0.12402-0.48576-0.11885-0.21704-0.31522-0.40308-0.19637-0.18603-0.44959-0.3514-0.25321-0.17053-0.51676-0.33589-0.26355-0.17053-0.51676-0.3514-0.24805-0.18603-0.44959-0.40307-0.20153-0.21704-0.32556-0.48059-0.11885-0.26355-0.12402-0.59945v-0.0827q5e-3 -0.55294 0.14469-0.91984 0.1447-0.3669 0.41858-0.58394 0.27905-0.21704 0.68213-0.30489 0.40307-0.093 0.925-0.093h0.13436q0.47542 0 0.80615 0.10336 0.33073 0.10335 0.54777 0.26354 0.22221 0.1602 0.34623 0.36174 0.12919 0.20154 0.1912 0.39791 0.062 0.19637 0.0775 0.3669t0.0155 0.27388q0 0.15503-0.062 0.28422-0.0568 0.12402-0.1602 0.21187-0.0982 0.0879-0.23771 0.13953-0.13436 0.0465-0.29455 0.0465-0.12403 0-0.24805-0.0465-0.12402-0.0517-0.22221-0.12919-0.0982-0.0775-0.16019-0.1757-0.062-0.10335-0.062-0.20671 0-0.42374-0.15503-0.58911-0.14986-0.16536-0.44442-0.16536-0.13953 0-0.27388 0.0155-0.12919 0.0155-0.23255 0.0879-0.0982 0.0672-0.16019 0.21188-0.0568 0.14469-0.0568 0.40824z"/>
   <path d="m447.96 277.02h1.6433l-0.76481-2.7698h-0.11369zm3.2453 0.50643q0.0103 0.3514 0.0258 0.7183t0.0155 0.70797v0.15503q0 0.19637-0.0155 0.3824-0.0103 0.18087-0.0775 0.33073-0.0672 0.14469-0.21187 0.23254-0.1447 0.0879-0.40825 0.0879-0.26871 0-0.41341-0.0879-0.14469-0.0879-0.21704-0.23254-0.0672-0.14469-0.0827-0.33073-0.0103-0.18603-0.0103-0.3824v-0.72347h-2.067v0.72347q0 0.19637-0.0155 0.3824-0.0103 0.18604-0.0827 0.33073-0.0672 0.14469-0.21187 0.23254-0.1447 0.0879-0.41341 0.0879-0.26872 0-0.41341-0.0879-0.1447-0.0879-0.21187-0.23254-0.0672-0.14986-0.0775-0.33073-0.0103-0.18603-0.0103-0.3824v-0.15503q0-0.1602 0-0.34107 5e-3 -0.18086 0.0103-0.3669 5e-3 -0.18603 0.0103-0.3669 5e-3 -0.18603 0.0103-0.3514 0.25838-0.89916 0.5426-1.819 0.28422-0.92501 0.5426-1.8293 0.0517-0.1912 0.12403-0.3669 0.0723-0.18087 0.1912-0.31006 0.11885-0.13436 0.30489-0.21187 0.18603-0.0827 0.47542-0.0827h0.51676q0.28422 0 0.47026 0.0827 0.1912 0.0775 0.31005 0.21187 0.11886 0.12919 0.18604 0.31006 0.0724 0.1757 0.12919 0.3669z"/>
   <path d="m457.4 279.67q0 0.0672-0.0155 0.15503-0.0103 0.0879-0.0672 0.17053-0.0517 0.0775-0.15503 0.13436-0.10335 0.0568-0.27905 0.0568-0.19637 0-0.31006-0.0517-0.11369-0.0568-0.1757-0.13436-0.0568-0.0827-0.0775-0.17053-0.0155-0.0879-0.0155-0.1602v-0.31006q-0.24804 0.3669-0.63561 0.59945-0.38241 0.22737-0.94568 0.22737-0.0982 0-0.30489-0.0155-0.2067-0.0155-0.46509-0.0827-0.25838-0.0672-0.53226-0.20154-0.27389-0.13436-0.50126-0.37207-0.22221-0.24288-0.3669-0.59944-0.1447-0.36174-0.1447-0.8785v-2.8939q0-0.42375 0.10336-0.74931 0.10335-0.32556 0.26871-0.56327 0.17053-0.24288 0.38757-0.40307 0.21704-0.16537 0.44442-0.27389 0.5271-0.24804 1.2041-0.28422 0.5736 0 0.98185 0.12919 0.40824 0.12919 0.69246 0.3359 0.28422 0.2067 0.45475 0.47025 0.17053 0.25838 0.26355 0.5271 0.093 0.26872 0.11885 0.51676 0.031 0.24805 0.031 0.42892 0 0.0775-0.0155 0.1912-0.0103 0.10852-0.0879 0.21187-0.0775 0.0982-0.24805 0.17053-0.16536 0.0672-0.47542 0.0672-0.10852 0-0.26872-0.0103-0.15503-0.0155-0.29972-0.0672t-0.24805-0.14986q-0.10335-0.10336-0.10335-0.27905 0-0.27906-0.0362-0.4961-0.031-0.2222-0.11886-0.37723-0.0879-0.15503-0.24288-0.23255-0.15502-0.0827-0.3979-0.0827-0.25322 0-0.39274 0.10335-0.13436 0.10336-0.19637 0.22738-0.0723 0.14469-0.0827 0.33073v3.3073q0 0.16536 0.0568 0.31006 0.062 0.14469 0.17053 0.25321 0.10852 0.10852 0.25322 0.17053 0.14986 0.062 0.32556 0.062 0.2067 0 0.37206-0.0879 0.17054-0.093 0.30489-0.24288 0.13436-0.15502 0.23772-0.34623 0.10852-0.19637 0.1912-0.40824h-0.49609q-0.14987-0.0155-0.26355-0.0775-0.10336-0.0517-0.18604-0.15503-0.0775-0.10335-0.0775-0.28422 0-0.19637 0.0775-0.29972 0.0827-0.10852 0.18604-0.1602 0.11368-0.0568 0.26355-0.0672h1.3436q0.0362 0 0.11369 0.0155 0.0827 0.0103 0.16536 0.0724 0.0879 0.062 0.14986 0.18604 0.0672 0.11885 0.0672 0.33589z"/>
   <path d="m458.8 274.08q0-0.22221 0.0103-0.43408 0.0155-0.21187 0.0878-0.37723 0.0724-0.16537 0.22738-0.26355 0.1602-0.10336 0.44958-0.10336h1.7053q0.63562 0.031 1.1369 0.26872 0.21187 0.10335 0.41341 0.25838 0.2067 0.14986 0.3669 0.37724 0.1602 0.22221 0.25838 0.5271 0.0982 0.30489 0.0982 0.70796 0 0.0827-0.0155 0.22221-0.0155 0.13436-0.0672 0.29972-0.0517 0.1602-0.13952 0.3359-0.0878 0.1757-0.23255 0.33589-0.14469 0.1602-0.35656 0.29456-0.20671 0.13436-0.49093 0.21704 0.18087 0.0724 0.3669 0.1912 0.18604 0.11369 0.3359 0.29456 0.14986 0.18086 0.24288 0.43408 0.0982 0.25321 0.0982 0.58911v0.7338q0 0.062 0.031 0.10335 0.031 0.0413 0.062 0.0723 0.12402 0.12402 0.14469 0.21704 0.0207 0.0879 0.0207 0.14469 0 0.18087-0.0723 0.30489-0.0724 0.12402-0.1912 0.20154-0.11369 0.0775-0.26355 0.10852-0.1447 0.0362-0.29973 0.0362-0.17053 0-0.34623-0.0517-0.1757-0.0568-0.32039-0.1602-0.14469-0.10335-0.23771-0.25838-0.0879-0.15503-0.0879-0.35657v-1.0955q0-0.22738-0.031-0.41858t-0.11885-0.33073q-0.0879-0.13953-0.24288-0.21704-0.15503-0.0775-0.40307-0.0775h-0.57878v1.726q0 0.22738-0.0155 0.44442-0.0103 0.21704-0.0827 0.38757-0.0723 0.16536-0.23255 0.26872-0.16019 0.0982-0.45475 0.0982-0.28938 0-0.44958-0.0982-0.15503-0.10336-0.22738-0.26872-0.0723-0.17053-0.0878-0.38757-0.0103-0.21704-0.0103-0.44442zm2.2634 1.974q0.25838-0.0103 0.46509-0.12403 0.0879-0.0465 0.17053-0.11885 0.0827-0.0723 0.14986-0.18087 0.0672-0.10852 0.10335-0.25321 0.0413-0.1447 0.0413-0.3359 0-0.17053-0.0413-0.29972-0.0362-0.13436-0.0982-0.23254-0.062-0.0982-0.1447-0.16537-0.0775-0.0672-0.16019-0.10852-0.19637-0.0982-0.44442-0.11369h-0.74414v1.9327z"/>
   <path d="m464.75 274.95q0-0.49609 0.14469-0.84232 0.14469-0.3514 0.3669-0.58394 0.22738-0.23254 0.49609-0.36173 0.27389-0.13436 0.5271-0.20154 0.25838-0.0672 0.46509-0.0827 0.2067-0.0155 0.30489-0.0155h0.1757q0.0982 0 0.30489 0.0155 0.2067 0.0155 0.45992 0.0827 0.25321 0.0672 0.52193 0.20154 0.27388 0.12919 0.49092 0.36173 0.22221 0.23254 0.36174 0.58394 0.14469 0.34623 0.14469 0.84232v3.0902q0 0.5116-0.14469 0.86817-0.13953 0.35656-0.36174 0.59427-0.21704 0.23771-0.49092 0.37724-0.26872 0.13436-0.52193 0.20154-0.25322 0.0672-0.45992 0.0827-0.20671 0.0155-0.30489 0.0155h-0.1757q-0.0982 0-0.30489-0.0155-0.20671-0.0155-0.46509-0.0827-0.25321-0.0672-0.5271-0.20154-0.26871-0.13953-0.49609-0.37724-0.22221-0.23771-0.3669-0.59427-0.14469-0.35657-0.14469-0.86817zm1.7156 3.2866q0.0103 0.19121 0.0879 0.3359 0.0672 0.12919 0.20154 0.23254 0.13952 0.10336 0.39274 0.10336 0.24804 0 0.3824-0.10336 0.13436-0.10335 0.20154-0.23254 0.0723-0.14469 0.0879-0.3359v-3.3693q-0.0155-0.18603-0.0879-0.33589-0.0672-0.12403-0.20154-0.22738-0.13436-0.10852-0.3824-0.10852-0.25322 0-0.39274 0.10852-0.13436 0.10335-0.20154 0.22738-0.0775 0.14986-0.0879 0.33589z"/>
  </g>
 </g>
</svg>
