<?xml version="1.0" encoding="UTF-8"?>
<svg width="308.84mm" height="279.04mm" version="1.1" viewBox="0 0 308.84 279.04" xmlns="http://www.w3.org/2000/svg" xmlns:cc="http://creativecommons.org/ns#" xmlns:dc="http://purl.org/dc/elements/1.1/" xmlns:rdf="http://www.w3.org/1999/02/22-rdf-syntax-ns#">
 <metadata>
  <rdf:RDF>
   <cc:Work rdf:about="">
    <dc:format>image/svg+xml</dc:format>
    <dc:type rdf:resource="http://purl.org/dc/dcmitype/StillImage"/>
    <dc:title/>
   </cc:Work>
  </rdf:RDF>
 </metadata>
 <g transform="translate(-103.65 -266.04)">
  <g stroke-width=".5864">
   <path d="m155.9 428.7c-28.857 0-52.25 21.456-52.25 47.922s23.393 47.922 52.25 47.922c14.624 0 27.837-5.5171 37.321-14.397v-81.447h-37.321z"/>
   <path d="m267.86 332.85h-52.25v130.07c0 45.371 40.103 82.153 89.571 82.153h44.786v-136.92c-6.1e-4 -41.59-36.761-75.306-82.107-75.306zm14.929 75.306h-1e-3c-8.2306 0-14.927-6.1421-14.927-13.692 3e-3 -7.5511 6.6998-13.692 14.929-13.692 8.2318 0 14.929 6.1421 14.929 13.692s-6.6974 13.692-14.929 13.692z"/>
   <path d="m193.22 415v-82.153h-89.571z"/>
  </g>
  <path d="m367.44 416.44c0-8.4787-1.2299-17.455-3.6471-26.617-10.437-39.559-39.499-64.472-83.617-71.68-9.0022-1.4707-24.97-2.5939-33.088-2.3274l-6.3622 0.20883 1.426-5.3254c6.9782-26.061 21.391-37.955 40.114-33.104 12.651 3.278 27.447 15.823 27.447 23.273 0 2.1842 0.86635 1.6395 2.4982-1.5707 2.4579-4.8352 7.9832-12.592 12.14-17.043 7.0284-7.5259 13.784-12.106 21.742-14.74 5.6015-1.8539 16.306-1.9841 21.347-0.25973 17.6 6.0204 28.55 21.956 27.484 39.998-0.69189 11.71-6.1099 22.245-16.383 31.855-3.1128 2.9119-3.8641 3.9215-3.2209 4.3288 0.46135 0.29214 1.2828 0.5353 1.8253 0.54036 2.8834 0.027 13.61 3.434 18.898 6.0026 16.682 8.1033 20.655 20.739 12.012 38.204-7.6365 15.431-26.756 32.829-38.361 34.908l-2.255 0.40385z" stroke-width=".60133"/>
 </g>
</svg>
